<svg id="visual" viewBox="0 0 900 600" width="900" height="600" xmlns="http://www.w3.org/2000/svg" xmlns:xlink="http://www.w3.org/1999/xlink" version="1.1"><rect x="0" y="0" width="900" height="600" fill="#ffffff"></rect><defs><linearGradient id="grad1_0" x1="33.3%" y1="0%" x2="100%" y2="100%"><stop offset="20%" stop-color="#038373" stop-opacity="1"></stop><stop offset="80%" stop-color="#038373" stop-opacity="1"></stop></linearGradient></defs><defs><linearGradient id="grad1_1" x1="33.3%" y1="0%" x2="100%" y2="100%"><stop offset="20%" stop-color="#038373" stop-opacity="1"></stop><stop offset="80%" stop-color="#5ba194" stop-opacity="1"></stop></linearGradient></defs><defs><linearGradient id="grad1_2" x1="33.3%" y1="0%" x2="100%" y2="100%"><stop offset="20%" stop-color="#93c0b6" stop-opacity="1"></stop><stop offset="80%" stop-color="#5ba194" stop-opacity="1"></stop></linearGradient></defs><defs><linearGradient id="grad1_3" x1="33.3%" y1="0%" x2="100%" y2="100%"><stop offset="20%" stop-color="#93c0b6" stop-opacity="1"></stop><stop offset="80%" stop-color="#c9dfda" stop-opacity="1"></stop></linearGradient></defs><defs><linearGradient id="grad1_4" x1="33.3%" y1="0%" x2="100%" y2="100%"><stop offset="20%" stop-color="#ffffff" stop-opacity="1"></stop><stop offset="80%" stop-color="#c9dfda" stop-opacity="1"></stop></linearGradient></defs><defs><linearGradient id="grad2_0" x1="0%" y1="0%" x2="66.7%" y2="100%"><stop offset="20%" stop-color="#038373" stop-opacity="1"></stop><stop offset="80%" stop-color="#038373" stop-opacity="1"></stop></linearGradient></defs><defs><linearGradient id="grad2_1" x1="0%" y1="0%" x2="66.7%" y2="100%"><stop offset="20%" stop-color="#5ba194" stop-opacity="1"></stop><stop offset="80%" stop-color="#038373" stop-opacity="1"></stop></linearGradient></defs><defs><linearGradient id="grad2_2" x1="0%" y1="0%" x2="66.7%" y2="100%"><stop offset="20%" stop-color="#5ba194" stop-opacity="1"></stop><stop offset="80%" stop-color="#93c0b6" stop-opacity="1"></stop></linearGradient></defs><defs><linearGradient id="grad2_3" x1="0%" y1="0%" x2="66.7%" y2="100%"><stop offset="20%" stop-color="#c9dfda" stop-opacity="1"></stop><stop offset="80%" stop-color="#93c0b6" stop-opacity="1"></stop></linearGradient></defs><defs><linearGradient id="grad2_4" x1="0%" y1="0%" x2="66.7%" y2="100%"><stop offset="20%" stop-color="#c9dfda" stop-opacity="1"></stop><stop offset="80%" stop-color="#ffffff" stop-opacity="1"></stop></linearGradient></defs><g transform="translate(900, 0)"><path d="M0 486.7C-45.1 440.2 -90.2 393.7 -156.9 378.8C-223.6 363.9 -311.8 380.5 -344.2 344.2C-376.6 307.8 -353.2 218.5 -367.7 152.3C-382.2 86.1 -434.5 43.1 -486.7 0L0 0Z" fill="#e4efec"></path><path d="M0 389.4C-36.1 352.2 -72.2 315 -125.5 303C-178.8 291.1 -249.4 304.4 -275.3 275.3C-301.3 246.3 -282.6 174.8 -294.2 121.8C-305.7 68.9 -347.6 34.4 -389.4 0L0 0Z" fill="#aed0c8"></path><path d="M0 292C-27.1 264.1 -54.1 236.2 -94.1 227.3C-134.1 218.3 -187.1 228.3 -206.5 206.5C-226 184.7 -211.9 131.1 -220.6 91.4C-229.3 51.7 -260.7 25.8 -292 0L0 0Z" fill="#77b1a5"></path><path d="M0 194.7C-18 176.1 -36.1 157.5 -62.8 151.5C-89.4 145.5 -124.7 152.2 -137.7 137.7C-150.6 123.1 -141.3 87.4 -147.1 60.9C-152.9 34.4 -173.8 17.2 -194.7 0L0 0Z" fill="#3b9283"></path><path d="M0 97.3C-9 88 -18 78.7 -31.4 75.8C-44.7 72.8 -62.4 76.1 -68.8 68.8C-75.3 61.6 -70.6 43.7 -73.5 30.5C-76.4 17.2 -86.9 8.6 -97.3 0L0 0Z" fill="#038373"></path></g><g transform="translate(0, 600)"><path d="M0 -486.7C70.8 -487.8 141.6 -488.8 186.3 -449.7C231 -410.6 249.6 -331.5 279.3 -279.3C309 -227.2 349.8 -202 386.2 -160C422.6 -117.9 454.7 -59 486.7 0L0 0Z" fill="#e4efec"></path><path d="M0 -389.4C56.6 -390.2 113.3 -391 149 -359.8C184.8 -328.5 199.7 -265.2 223.4 -223.4C247.2 -181.7 279.8 -161.6 308.9 -128C338.1 -94.3 363.7 -47.2 389.4 0L0 0Z" fill="#aed0c8"></path><path d="M0 -292C42.5 -292.7 84.9 -293.3 111.8 -269.8C138.6 -246.4 149.8 -198.9 167.6 -167.6C185.4 -136.3 209.9 -121.2 231.7 -96C253.6 -70.7 272.8 -35.4 292 0L0 0Z" fill="#77b1a5"></path><path d="M0 -194.7C28.3 -195.1 56.6 -195.5 74.5 -179.9C92.4 -164.2 99.8 -132.6 111.7 -111.7C123.6 -90.9 139.9 -80.8 154.5 -64C169 -47.2 181.9 -23.6 194.7 0L0 0Z" fill="#3b9283"></path><path d="M0 -97.3C14.2 -97.6 28.3 -97.8 37.3 -89.9C46.2 -82.1 49.9 -66.3 55.9 -55.9C61.8 -45.4 70 -40.4 77.2 -32C84.5 -23.6 90.9 -11.8 97.3 0L0 0Z" fill="#038373"></path></g></svg>