<svg id="visual" viewBox="0 0 900 600" width="900" height="600" xmlns="http://www.w3.org/2000/svg" xmlns:xlink="http://www.w3.org/1999/xlink" version="1.1"><path d="M0 43L82 67L164 103L245 91L327 61L409 61L491 43L573 79L655 109L736 43L818 49L900 103L900 0L818 0L736 0L655 0L573 0L491 0L409 0L327 0L245 0L164 0L82 0L0 0Z" fill="#00cc8e"></path><path d="M0 163L82 121L164 181L245 229L327 145L409 235L491 181L573 181L655 229L736 103L818 103L900 247L900 101L818 47L736 41L655 107L573 77L491 41L409 59L327 59L245 89L164 101L82 65L0 41Z" fill="#00b98a"></path><path d="M0 319L82 229L164 307L245 367L327 355L409 361L491 361L573 319L655 337L736 265L818 283L900 451L900 245L818 101L736 101L655 227L573 179L491 179L409 233L327 143L245 227L164 179L82 119L0 161Z" fill="#00a784"></path><path d="M0 499L82 511L164 535L245 553L327 541L409 565L491 499L573 523L655 523L736 553L818 523L900 529L900 449L818 281L736 263L655 335L573 317L491 359L409 359L327 353L245 365L164 305L82 227L0 317Z" fill="#00957c"></path><path d="M0 601L82 601L164 601L245 601L327 601L409 601L491 601L573 601L655 601L736 601L818 601L900 601L900 527L818 521L736 551L655 521L573 521L491 497L409 563L327 539L245 551L164 533L82 509L0 497Z" fill="#038373"></path></svg>